# Blender 4.0.2
# www.blender.org
mtllib Lightning.mtl
o Lightning
v 0.146385 1.568190 0.071936
v 0.225244 0.263684 0.071936
v 0.146385 1.568190 0.116552
v 0.225244 0.263684 0.116552
v 1.000000 -0.011054 0.020612
v 0.111640 1.568190 0.071936
v 0.190499 0.263684 0.071936
v 0.111640 1.568190 0.116552
v 0.190499 0.263684 0.116552
v 0.229348 1.251889 0.104305
v 0.146271 1.070445 0.117748
v 0.146385 1.026991 0.071936
v 0.111640 1.022506 0.071936
v 0.264523 1.243573 0.061873
v 0.299268 1.253845 0.061873
v 0.111640 1.063038 0.116552
v 0.264093 1.257645 0.104305
vn -0.9244 0.0487 -0.3782
vn 0.0015 -0.0103 -0.9999
vn -0.0000 1.0000 -0.0000
vn -0.0000 -1.0000 -0.0000
vn -0.0010 0.0124 0.9999
vn 0.9253 -0.0484 0.3760
vn -1.0000 -0.0000 -0.0000
vn -0.0174 0.0012 0.9998
vn -0.0000 -0.0000 -1.0000
vn 1.0000 -0.0001 0.0013
vn -0.0111 0.0525 0.9986
vn -0.7164 0.4436 -0.5384
vn -0.0341 0.0894 0.9954
vn 0.7245 -0.4438 0.5274
vn -0.2137 0.9266 -0.3094
vn 0.1131 -0.7280 0.6762
vt 0.375000 0.000000
vt 0.544469 0.000000
vt 0.538007 0.250000
vt 0.375000 0.250000
vt 0.538722 0.500000
vt 0.375000 0.500000
vt 0.625000 0.500000
vt 0.625000 0.750000
vt 0.375000 0.750000
vt 0.625000 1.000000
vt 0.375000 1.000000
vt 0.125000 0.500000
vt 0.295386 0.500000
vt 0.294469 0.750000
vt 0.125000 0.750000
vt 0.788722 0.500000
vt 0.795386 0.750000
vt 0.625000 0.000000
vt 0.625000 0.250000
vt 0.875000 0.500000
vt 0.875000 0.750000
vt 0.000000 0.000000
s 0
usemtl Material
f 9/1/1 10/2/1 14/3/1 7/4/1
f 7/4/2 14/3/2 15/5/2 2/6/2
f 1/6/3 6/7/3 8/8/3 3/9/3
f 7/9/4 2/8/4 4/10/4 9/11/4
f 4/12/5 17/13/5 10/14/5 9/15/5
f 2/7/6 15/16/6 17/17/6 4/8/6
f 13/3/7 16/2/7 8/18/7 6/19/7
f 16/14/8 11/13/8 3/6/8 8/9/8
f 12/5/9 13/3/9 6/19/9 1/7/9
f 11/17/10 12/16/10 1/20/10 3/21/10
f 12/16/11 15/16/11 14/3/11 13/3/11
f 14/3/12 13/3/12 16/2/12 10/2/12
f 10/22/13 16/22/13 11/22/13 17/22/13
f 12/16/14 15/16/14 17/17/14 11/17/14
f 10/22/15 17/22/15 15/5/15 14/3/15
f 13/3/16 12/5/16 11/17/16 16/14/16
l 12 14
