# Blender 4.1.0
# www.blender.org
mtllib sphere.mtl
o Sphere
v 0.500000 0.707107 -0.500000
v 0.707107 0.000000 -0.707107
v 0.500000 -0.707107 -0.500000
v 0.707107 0.707107 0.000000
v 1.000000 0.000000 0.000000
v 0.707107 -0.707107 0.000000
v 0.500000 0.707107 0.500000
v 0.707107 0.000000 0.707107
v 0.500000 -0.707107 0.500000
v 0.000000 0.707107 0.707107
v 0.000000 0.000000 1.000000
v 0.000000 -0.707107 0.707107
v -0.500000 0.707107 0.500000
v -0.707107 0.000000 0.707107
v -0.500000 -0.707107 0.500000
v 0.000000 -1.000000 0.000000
v -0.707107 0.707107 0.000000
v -1.000000 0.000000 0.000000
v -0.707107 -0.707107 0.000000
v -0.500000 0.707107 -0.500000
v -0.707107 0.000000 -0.707107
v -0.500000 -0.707107 -0.500000
v 0.000000 1.000000 0.000000
v 0.000000 0.707107 -0.707107
v 0.000000 0.000000 -1.000000
v 0.000000 -0.707107 -0.707107
vn 0.3574 -0.3574 -0.8629
vn 0.1566 0.9125 -0.3780
vn 0.1566 -0.9125 -0.3780
vn 0.3574 0.3574 -0.8629
vn 0.8629 -0.3574 -0.3574
vn 0.3780 0.9125 -0.1566
vn 0.3780 -0.9125 -0.1566
vn 0.8629 0.3574 -0.3574
vn 0.8629 -0.3574 0.3574
vn 0.3780 0.9125 0.1566
vn 0.3780 -0.9125 0.1566
vn 0.8629 0.3574 0.3574
vn 0.3574 -0.3574 0.8629
vn 0.1566 0.9125 0.3780
vn 0.1566 -0.9125 0.3780
vn 0.3574 0.3574 0.8629
vn -0.3574 -0.3574 0.8629
vn -0.1566 0.9125 0.3780
vn -0.1566 -0.9125 0.3780
vn -0.3574 0.3574 0.8629
vn -0.8629 0.3574 0.3574
vn -0.8629 -0.3574 0.3574
vn -0.3780 0.9125 0.1566
vn -0.3780 -0.9125 0.1566
vn -0.3780 -0.9125 -0.1566
vn -0.8629 0.3574 -0.3574
vn -0.8629 -0.3574 -0.3574
vn -0.3780 0.9125 -0.1566
vn -0.1566 -0.9125 -0.3780
vn -0.3574 0.3574 -0.8629
vn -0.3574 -0.3574 -0.8629
vn -0.1566 0.9125 -0.3780
vt 0.750000 0.250000
vt 0.750000 0.500000
vt 0.625000 0.500000
vt 0.625000 0.250000
vt 0.750000 0.750000
vt 0.687500 1.000000
vt 0.625000 0.750000
vt 0.687500 0.000000
vt 0.500000 0.500000
vt 0.500000 0.250000
vt 0.562500 1.000000
vt 0.500000 0.750000
vt 0.562500 0.000000
vt 0.375000 0.500000
vt 0.375000 0.250000
vt 0.437500 1.000000
vt 0.375000 0.750000
vt 0.437500 0.000000
vt 0.250000 0.500000
vt 0.250000 0.250000
vt 0.312500 1.000000
vt 0.250000 0.750000
vt 0.312500 0.000000
vt 0.125000 0.500000
vt 0.125000 0.250000
vt 0.187500 1.000000
vt 0.125000 0.750000
vt 0.187500 0.000000
vt 0.000000 0.750000
vt 0.000000 0.500000
vt 0.000000 0.250000
vt 0.062500 1.000000
vt 0.062500 0.000000
vt 0.937500 0.000000
vt 1.000000 0.250000
vt 0.875000 0.250000
vt 1.000000 0.500000
vt 1.000000 0.750000
vt 0.875000 0.750000
vt 0.875000 0.500000
vt 0.937500 1.000000
vt 0.812500 0.000000
vt 0.812500 1.000000
s 0
f 26/1/1 25/2/1 2/3/1 3/4/1
f 24/5/2 23/6/2 1/7/2
f 16/8/3 26/1/3 3/4/3
f 25/2/4 24/5/4 1/7/4 2/3/4
f 3/4/5 2/3/5 5/9/5 6/10/5
f 1/7/6 23/11/6 4/12/6
f 16/13/7 3/4/7 6/10/7
f 2/3/8 1/7/8 4/12/8 5/9/8
f 6/10/9 5/9/9 8/14/9 9/15/9
f 4/12/10 23/16/10 7/17/10
f 16/18/11 6/10/11 9/15/11
f 5/9/12 4/12/12 7/17/12 8/14/12
f 9/15/13 8/14/13 11/19/13 12/20/13
f 7/17/14 23/21/14 10/22/14
f 16/23/15 9/15/15 12/20/15
f 8/14/16 7/17/16 10/22/16 11/19/16
f 12/20/17 11/19/17 14/24/17 15/25/17
f 10/22/18 23/26/18 13/27/18
f 16/28/19 12/20/19 15/25/19
f 11/19/20 10/22/20 13/27/20 14/24/20
f 14/24/21 13/27/21 17/29/21 18/30/21
f 15/25/22 14/24/22 18/30/22 19/31/22
f 13/27/23 23/32/23 17/29/23
f 16/33/24 15/25/24 19/31/24
f 16/34/25 19/35/25 22/36/25
f 18/37/26 17/38/26 20/39/26 21/40/26
f 19/35/27 18/37/27 21/40/27 22/36/27
f 17/38/28 23/41/28 20/39/28
f 16/42/29 22/36/29 26/1/29
f 21/40/30 20/39/30 24/5/30 25/2/30
f 22/36/31 21/40/31 25/2/31 26/1/31
f 20/39/32 23/43/32 24/5/32
